<?xml version="1.0" standalone="no"?>
<!DOCTYPE svg PUBLIC "-//W3C//DTD SVG 20010904//EN"
 "http://www.w3.org/TR/2001/REC-SVG-20010904/DTD/svg10.dtd">
<svg version="1.0" xmlns="http://www.w3.org/2000/svg"
 width="1280.000000pt" height="830.000000pt" viewBox="0 0 1280.000000 830.000000"
 preserveAspectRatio="xMidYMid meet">
<metadata>
Created by potrace 1.15, written by Peter Selinger 2001-2017
</metadata>
<g transform="translate(0.000000,830.000000) scale(0.100000,-0.100000)"
fill="#000000" stroke="none">
<path d="M5800 8289 c-455 -50 -825 -181 -1182 -418 -433 -287 -768 -704 -966
-1201 -123 -308 -164 -533 -164 -885 1 -538 160 -1021 488 -1483 75 -107 98
-131 161 -173 53 -36 79 -61 94 -92 12 -23 23 -44 25 -46 5 -5 164 53 164 60
0 4 -37 47 -81 96 -185 201 -312 378 -401 563 -56 114 -100 229 -92 242 3 4
40 -10 82 -31 l77 -39 34 -78 c47 -108 135 -258 183 -310 l39 -42 47 13 c66
17 80 26 135 84 26 28 55 51 65 51 10 0 40 16 67 34 27 19 53 32 58 29 12 -7
3 -121 -18 -233 -13 -71 -14 -108 -5 -220 5 -74 6 -137 2 -141 -14 -14 -442
-172 -449 -166 -3 4 2 16 12 27 16 17 17 26 6 77 -6 31 -12 57 -13 58 -2 1
-23 13 -48 27 -41 24 -108 80 -336 283 -105 93 -191 154 -291 204 -52 26 -91
53 -109 76 l-27 35 27 61 c14 33 26 66 26 74 0 7 -26 38 -58 69 -68 65 -110
134 -197 319 -47 100 -69 136 -92 149 -27 17 -30 16 -59 -1 l-30 -18 7 -69 c5
-38 8 -145 8 -238 l1 -168 50 -87 c27 -47 72 -140 100 -206 31 -73 62 -130 79
-146 46 -42 297 -180 401 -220 52 -19 115 -46 140 -58 59 -30 120 -89 120
-116 0 -37 68 -114 112 -127 37 -11 68 -40 68 -63 -1 -5 -52 -43 -114 -82
l-113 -73 -134 0 c-154 0 -209 -7 -209 -26 0 -27 41 -34 190 -34 174 0 190 5
280 79 134 112 261 176 590 299 296 110 493 175 634 206 124 28 157 29 84 2
-266 -96 -345 -128 -483 -196 -182 -89 -318 -175 -408 -259 l-62 -58 -150 -6
c-82 -3 -158 -9 -167 -12 -25 -10 -22 -32 7 -51 21 -14 45 -15 205 -6 108 6
185 14 194 21 8 6 17 28 21 48 9 49 103 140 216 210 88 55 199 108 198 95 0
-4 -31 -32 -70 -62 -64 -51 -134 -120 -233 -231 -39 -43 -45 -67 -23 -81 15
-9 174 -10 285 -1 95 7 111 20 68 59 -49 46 -24 106 76 180 134 98 206 121
407 130 69 3 136 7 148 10 33 6 53 32 53 68 0 37 11 50 53 60 19 4 27 2 27 -6
0 -7 -27 -74 -60 -148 -51 -115 -60 -143 -60 -194 0 -55 4 -65 67 -163 36 -58
77 -112 90 -120 22 -15 25 -14 51 10 15 14 39 30 54 36 22 8 31 23 47 77 25
79 25 91 6 138 -25 59 -51 42 -46 -31 3 -55 -11 -55 -45 0 -14 23 -37 52 -51
63 l-26 22 24 33 c13 18 62 81 109 140 47 58 101 133 120 166 l35 61 179 88
c326 162 556 308 641 407 92 108 121 231 77 330 -46 103 -199 232 -537 452
-193 126 -238 164 -269 227 -58 117 -19 212 134 322 195 141 419 234 652 272
208 34 545 35 648 3 85 -27 269 -149 342 -227 51 -54 63 -92 56 -171 -6 -62
-37 -121 -107 -206 -63 -77 -118 -119 -180 -141 -53 -18 -313 -39 -373 -30
-92 14 -144 87 -135 192 5 70 36 123 106 187 38 34 46 37 104 37 l62 1 -29 23
c-59 49 -195 62 -273 27 -54 -25 -129 -95 -154 -143 -33 -65 -35 -117 -6 -175
31 -60 80 -101 174 -146 64 -30 76 -32 196 -35 70 -2 180 1 245 7 104 10 126
15 197 50 86 43 163 110 190 167 9 19 22 68 30 109 26 132 -2 210 -111 317
-113 111 -202 166 -299 186 -167 35 -565 39 -740 7 -183 -33 -420 -87 -504
-115 -303 -102 -540 -275 -597 -437 -16 -45 -17 -59 -6 -109 32 -157 95 -216
413 -395 90 -50 187 -107 215 -125 77 -51 179 -149 231 -221 l46 -64 -6 -99
c-8 -153 -58 -237 -171 -291 -61 -29 -322 -97 -332 -86 -3 3 1 18 9 34 8 15
22 50 31 77 16 46 16 51 -3 106 -13 36 -20 83 -20 122 1 103 -23 190 -69 250
-50 67 -74 115 -127 253 -36 97 -46 114 -84 142 -40 31 -47 33 -127 33 -85 0
-125 12 -167 48 -9 8 -19 13 -22 10 -3 -2 -14 -54 -26 -116 -12 -61 -26 -118
-33 -126 -7 -9 -40 -19 -87 -24 -41 -5 -90 -17 -108 -27 -18 -9 -35 -14 -38
-12 -8 9 43 81 137 192 101 119 105 128 125 231 17 84 37 137 83 219 19 33 43
82 53 109 24 58 43 240 34 315 -19 158 -121 251 -295 271 -122 13 -360 6 -395
-12 -46 -24 -65 -51 -67 -92 -1 -30 4 -42 27 -60 l28 -23 -18 -71 c-12 -51
-15 -88 -10 -130 6 -56 5 -60 -29 -101 -42 -51 -45 -74 -11 -89 23 -11 25 -16
19 -52 -6 -38 -5 -40 19 -40 14 0 33 -3 42 -6 13 -5 11 -11 -16 -33 -26 -22
-30 -31 -22 -46 6 -11 7 -30 3 -46 -5 -16 -3 -36 4 -50 10 -21 19 -24 81 -27
38 -2 75 -7 81 -13 20 -17 56 -238 47 -284 -6 -26 -4 -65 5 -114 8 -44 10 -77
4 -83 -5 -5 -24 12 -48 44 -39 52 -41 53 -87 51 -27 -2 -47 2 -47 7 0 17 61
122 97 167 55 69 46 69 -91 7 -81 -37 -115 -47 -173 -52 l-72 -5 -50 -66 c-57
-75 -238 -265 -291 -304 l-34 -26 3 -75 c3 -91 -2 -93 -80 -38 -60 42 -119
128 -119 175 0 15 8 42 17 60 33 64 11 308 -33 351 -8 9 -26 16 -40 16 -23 0
-24 2 -24 80 l0 80 -36 0 c-42 0 -43 -9 22 155 24 60 44 115 44 122 0 36 -23
0 -81 -129 l-64 -143 -73 -9 -72 -9 0 -115 0 -115 -37 7 c-21 3 -62 6 -90 6
-72 0 -67 16 8 25 l62 7 -7 77 c-23 285 -17 429 29 657 99 488 320 891 687
1250 367 359 820 575 1351 645 56 7 173 9 310 6 272 -5 427 -31 678 -113 600
-197 1070 -604 1361 -1179 83 -164 134 -305 178 -490 51 -216 55 -255 55 -525
0 -224 -3 -272 -24 -392 -13 -75 -21 -143 -19 -150 6 -15 144 -65 154 -55 11
11 44 186 59 317 17 144 20 446 5 570 -92 779 -497 1439 -1140 1856 -391 253
-838 388 -1320 399 -107 2 -233 0 -280 -6z m545 -2102 c-243 -125 -346 -227
-362 -355 -9 -76 22 -127 141 -235 136 -124 182 -172 225 -237 49 -73 111
-187 105 -193 -14 -13 -552 252 -623 308 -106 81 -144 147 -144 251 0 121 50
189 223 299 116 74 243 135 380 182 180 61 199 55 55 -20z m862 -191 c4 -3
-18 -29 -47 -58 -63 -63 -100 -138 -107 -219 -5 -54 -3 -64 26 -110 17 -29 30
-53 28 -56 -11 -10 -67 23 -110 65 -92 89 -108 162 -58 265 24 49 58 76 139
108 43 18 114 20 129 5z m643 -234 c0 -12 -52 -84 -74 -101 -33 -27 -25 -4 17
52 40 53 57 68 57 49z m-3852 -328 c22 -6 22 -8 22 -189 l0 -182 -52 -6 c-126
-15 -250 24 -172 53 26 10 27 18 10 61 -5 11 -1 18 13 22 27 7 30 71 5 81 -13
5 -10 11 15 35 35 33 33 56 -5 65 -19 5 -24 13 -24 36 l0 30 83 0 c45 0 92 -3
105 -6z m2421 -37 c29 -18 83 -57 119 -87 80 -67 102 -118 110 -258 5 -89 -11
-212 -28 -212 -4 0 -11 21 -15 47 -16 110 -92 274 -205 443 -79 118 -77 115
-54 106 10 -4 43 -21 73 -39z m-2652 -213 c-3 -3 -12 -4 -19 -1 -8 3 -5 6 6 6
11 1 17 -2 13 -5z m2967 -64 c37 -45 49 -101 44 -215 -5 -118 -13 -137 -96
-219 -99 -97 -120 -100 -80 -9 36 80 75 259 84 376 3 53 10 97 14 97 5 0 20
-14 34 -30z m106 -135 c0 -8 -4 -15 -10 -15 -5 0 -10 7 -10 15 0 8 5 15 10 15
6 0 10 -7 10 -15z m-10 -106 c0 -16 -4 -28 -9 -25 -8 5 -3 56 5 56 2 0 4 -14
4 -31z m-1131 -243 c12 -13 40 -31 62 -41 21 -10 39 -24 39 -32 0 -7 -20 -54
-45 -104 -49 -96 -56 -102 -137 -112 l-48 -7 0 43 c0 34 6 49 25 67 20 19 24
30 19 56 -4 23 2 49 21 93 15 34 31 61 35 61 3 0 17 -11 29 -24z m556 -225
c-6 -5 -39 -26 -75 -46 -106 -60 -293 -131 -475 -180 -467 -127 -545 -153
-690 -236 -95 -53 -211 -161 -220 -204 -11 -52 -14 -55 -45 -55 -37 0 -38 15
-9 73 54 104 247 256 471 368 178 89 254 112 748 223 135 30 254 57 265 59 35
8 40 8 30 -2z m-1330 -424 c-135 -108 -221 -202 -231 -252 -6 -35 -6 -35 -60
-35 -30 0 -54 3 -54 8 0 41 121 154 270 253 105 69 149 84 75 26z"/>
<path d="M2313 6965 c-129 -36 -257 -126 -289 -202 -21 -48 -17 -69 16 -96 39
-34 106 -41 200 -23 41 8 77 13 78 11 2 -2 -14 -57 -37 -122 -74 -216 -129
-483 -115 -557 5 -29 2 -38 -20 -57 -56 -48 -16 -185 61 -213 39 -14 123 -118
134 -165 5 -20 9 -53 9 -73 0 -31 -4 -38 -19 -38 -20 0 -37 -32 -26 -49 12
-21 -7 -60 -36 -70 -36 -12 -37 -30 -3 -62 23 -21 213 -302 300 -441 19 -32
36 -48 49 -48 11 0 74 15 140 33 159 43 150 24 150 325 0 260 4 246 -76 256
-44 6 -49 9 -57 39 -8 31 -10 32 -65 35 -70 4 -78 26 -14 43 62 16 70 26 63
76 -3 25 -1 54 6 69 11 23 9 28 -11 43 l-24 18 32 11 c25 9 31 16 31 40 0 17
9 37 24 51 30 28 26 42 -24 75 -35 23 -39 30 -50 98 -12 71 -12 76 16 157 35
101 68 160 125 225 39 44 41 50 26 61 -9 7 -37 15 -62 18 -55 8 -105 32 -105
52 0 24 -21 28 -126 26 -73 -2 -112 2 -138 13 -20 8 -36 16 -36 18 0 2 67 2
150 2 l149 -2 27 -31 c30 -36 64 -55 114 -66 23 -4 54 -25 90 -60 119 -116
243 -127 265 -24 34 152 -255 498 -493 590 -48 19 -81 23 -217 25 -119 3 -174
0 -212 -11z"/>
<path d="M9505 6297 c-60 -20 -85 -38 -106 -79 -33 -64 -26 -102 27 -155 45
-44 46 -47 40 -92 -20 -146 -28 -173 -64 -213 -31 -35 -34 -41 -23 -64 6 -15
9 -41 5 -60 -6 -32 -4 -35 25 -45 38 -13 39 -23 4 -53 -26 -23 -27 -26 -15
-58 6 -19 12 -46 12 -61 0 -44 36 -61 106 -48 58 11 58 11 92 -21 41 -40 62
-78 62 -114 0 -21 -19 -47 -75 -105 -63 -64 -88 -99 -72 -99 2 0 39 20 83 45
97 56 188 85 264 85 56 0 59 1 62 27 2 14 15 35 31 46 24 19 32 20 80 10 28
-6 54 -9 56 -7 2 2 -4 13 -14 24 -28 31 -13 50 40 50 26 0 56 6 68 13 12 6 40
17 62 23 31 8 40 15 40 32 0 12 17 39 37 59 23 24 40 54 46 81 10 45 5 56 -18
41 -8 -5 -26 -9 -39 -9 l-24 0 21 23 c22 24 27 43 16 71 -8 21 -24 20 -40 -1
-23 -32 -27 -5 -6 39 26 54 45 160 37 201 -4 18 -16 46 -26 63 -16 26 -16 33
-5 50 12 17 7 28 -48 104 -70 97 -134 146 -236 181 -57 20 -89 23 -265 26
-145 2 -211 -1 -240 -10z m273 -649 c-3 -25 -34 -36 -50 -20 -17 17 -1 42 27
42 22 0 26 -4 23 -22z"/>
<path d="M8113 5233 c-31 -6 -50 -31 -29 -38 49 -16 48 -19 -14 -30 -92 -16
-168 -42 -236 -79 -116 -65 -93 -68 349 -60 191 4 350 11 352 15 7 10 -80 62
-145 86 -30 11 -87 26 -127 33 -75 14 -85 23 -33 33 16 4 30 11 30 17 0 24
-80 36 -147 23z"/>
<path d="M2078 5168 c-44 -15 -65 -29 -90 -61 -59 -76 -259 -297 -294 -325
-19 -15 -34 -33 -34 -41 0 -8 -25 -66 -56 -129 -31 -63 -59 -133 -62 -154 -5
-38 -2 -42 74 -120 123 -124 253 -204 526 -322 220 -96 212 -90 232 -178 9
-40 19 -84 23 -98 6 -23 2 -21 -44 18 -28 23 -56 42 -63 42 -15 0 -9 -73 12
-135 11 -34 20 -42 55 -54 37 -13 42 -19 47 -55 3 -23 6 -257 7 -521 l0 -480
-36 -90 c-20 -49 -57 -119 -80 -155 -49 -74 -54 -96 -116 -520 -28 -193 -32
-245 -35 -510 -2 -162 -6 -336 -7 -387 -3 -90 -3 -91 25 -108 35 -20 35 -32
-2 -123 -24 -61 -39 -83 -89 -128 -34 -31 -65 -70 -72 -89 -11 -30 -17 -35
-46 -35 -57 0 -40 39 60 131 l71 67 -12 39 c-6 22 -30 57 -55 81 -48 47 -44
48 -89 -12 l-22 -29 -105 6 c-58 3 -114 8 -123 12 -11 4 -26 -2 -42 -19 -28
-27 -26 -51 5 -59 17 -5 19 -9 10 -26 -16 -29 -14 -31 19 -31 17 0 30 -2 30
-5 0 -16 -30 -75 -38 -75 -6 0 -24 -13 -41 -29 -32 -30 -32 -30 -16 -67 11
-26 15 -71 15 -154 0 -65 3 -131 6 -147 l6 -30 411 -7 c227 -3 1285 -11 2352
-17 1067 -5 2863 -16 3990 -24 1128 -7 2062 -11 2078 -8 l27 5 0 170 0 169
-28 42 c-42 62 -402 651 -446 729 -21 37 -35 72 -31 78 10 17 75 46 151 69 39
11 78 29 86 38 8 10 37 58 64 107 36 65 64 102 104 135 30 25 86 76 124 114
38 37 71 67 74 67 10 0 242 -146 242 -152 0 -5 -8 -8 -19 -8 -17 0 -30 -25
-31 -57 0 -6 21 -22 46 -34 55 -28 64 -39 29 -39 -39 0 -41 -24 -10 -119 37
-116 63 -163 132 -245 146 -174 207 -256 234 -313 16 -34 34 -65 40 -68 6 -4
42 5 79 20 38 15 75 25 83 22 18 -7 32 -76 18 -90 -7 -7 -27 -7 -66 2 -30 7
-59 10 -65 6 -22 -14 -8 -64 35 -131 25 -38 48 -79 51 -91 4 -13 13 -23 21
-23 34 0 301 84 357 112 70 35 165 98 185 122 11 13 11 20 3 28 -7 7 -12 22
-12 33 0 23 -19 44 -57 64 -18 9 -41 8 -101 -2 -77 -13 -78 -13 -95 9 -9 12
-40 31 -69 42 -29 11 -54 24 -55 29 -2 5 21 26 52 46 30 21 55 42 55 47 0 12
-53 40 -75 40 -26 0 -107 46 -146 82 -44 41 -86 103 -129 188 -48 96 -76 175
-131 373 -27 98 -56 191 -64 208 -9 17 -50 52 -98 84 -89 59 -414 375 -386
375 9 0 36 -7 59 -15 23 -8 46 -12 51 -9 5 3 9 39 9 80 0 73 0 74 23 69 28 -7
41 6 61 63 l15 41 -55 16 c-91 26 -301 121 -408 184 -155 92 -151 90 -189 53
-70 -68 -63 -23 13 94 38 57 74 127 96 189 52 147 44 139 124 131 66 -7 69 -6
86 19 15 22 16 43 11 143 -3 64 -11 132 -17 150 -12 32 -12 32 -82 32 -38 0
-68 -3 -66 -7 2 -5 12 -24 22 -45 10 -20 16 -42 14 -50 -3 -8 -43 -20 -99 -31
-51 -10 -101 -25 -110 -33 -9 -8 -20 -32 -24 -52 -4 -20 -25 -84 -47 -141 -23
-58 -58 -166 -80 -240 -21 -74 -43 -141 -50 -148 -8 -9 -45 -13 -139 -13 -144
0 -142 -2 -110 71 11 26 22 82 26 139 6 78 14 111 46 187 82 192 78 265 -30
473 -64 124 -103 200 -137 273 -12 24 -11 32 2 52 12 18 13 29 5 43 -8 16 -5
30 15 67 15 25 24 48 21 51 -3 3 -43 11 -90 19 -131 21 -287 67 -287 84 0 9
175 150 195 157 8 4 70 -11 137 -32 l121 -37 20 24 19 24 -78 16 c-114 23
-164 38 -164 50 0 20 31 19 140 -6 79 -18 116 -23 125 -15 6 5 27 42 45 81 39
86 35 94 -67 119 -48 12 -67 21 -64 31 2 8 6 32 8 54 4 35 1 45 -24 72 -63 67
-207 71 -283 7 -17 -14 -37 -23 -45 -20 -8 3 -29 26 -47 51 -17 25 -37 45 -42
44 -24 -1 -201 -145 -201 -163 0 -12 27 -35 85 -70 122 -73 68 -72 -72 2 -20
10 10 -48 41 -81 43 -45 42 -47 -51 -130 l-66 -58 -58 37 c-33 21 -132 76
-222 124 -196 103 -242 138 -278 209 l-28 54 24 16 c55 35 170 174 156 189 -4
4 -232 8 -507 10 -413 2 -499 1 -499 -11 0 -42 98 -156 189 -217 35 -24 54
-45 59 -65 6 -23 17 -32 43 -40 20 -5 46 -17 60 -26 13 -9 42 -19 64 -23 24
-5 53 -20 72 -38 35 -34 65 -38 190 -23 72 8 73 8 125 -27 29 -19 105 -81 168
-138 63 -56 158 -134 211 -174 53 -39 124 -97 158 -129 l62 -56 -16 -68 c-26
-107 -29 -311 -11 -667 10 -181 14 -347 11 -368 l-7 -38 -84 0 -84 0 0 128 c0
127 0 127 -33 177 -38 58 -66 75 -127 75 -33 0 -41 3 -30 10 8 5 36 10 61 10
28 0 51 6 58 14 15 18 3 22 -94 31 -38 4 -77 13 -85 20 -22 19 -67 29 -75 16
-3 -6 5 -25 20 -42 14 -18 24 -34 21 -37 -3 -2 -32 5 -65 18 -48 18 -63 20
-81 10 -20 -11 -17 -14 46 -44 43 -20 64 -35 56 -40 -19 -11 -14 -26 8 -26 11
0 20 5 20 10 0 6 9 10 20 10 11 0 20 7 20 15 0 8 4 15 9 15 10 0 56 -69 50
-75 -6 -6 -116 -7 -524 -5 -285 2 -373 5 -352 13 15 6 27 16 27 21 -1 23 -81
144 -136 207 -62 70 -126 119 -156 119 -10 0 -28 -10 -40 -22 l-22 -22 39 -30
c112 -87 210 -200 229 -263 7 -22 5 -22 -81 -25 -106 -4 -105 -3 -73 -139 12
-50 19 -93 17 -95 -10 -11 -119 222 -142 306 -50 179 -101 244 -226 285 -26 9
-53 22 -59 30 -17 21 -3 53 33 71 27 15 39 15 101 3 68 -13 70 -12 85 10 9 13
26 34 39 48 18 20 20 28 11 45 -9 18 -8 24 7 35 10 7 21 13 26 13 4 0 12 17
18 38 6 20 17 48 24 62 13 22 12 28 -15 61 -31 39 -35 62 -19 104 8 21 15 26
31 22 31 -8 66 12 84 48 34 73 9 146 -62 177 -26 12 -62 32 -79 44 -17 13 -34
24 -37 24 -3 0 7 -25 24 -56 39 -75 39 -131 0 -199 -16 -28 -37 -57 -46 -65
-16 -14 -17 -11 -9 40 5 30 9 93 9 140 -1 78 -4 91 -38 158 -35 68 -39 72 -72
72 -20 0 -64 16 -110 40 -69 36 -83 40 -151 40 -54 0 -85 -5 -113 -19 -85 -44
-192 -200 -246 -360 -12 -36 -27 -67 -33 -69 -6 -2 -24 10 -40 27 -16 17 -31
28 -35 25 -4 -4 -7 -39 -7 -77 0 -69 0 -69 -25 -65 -14 3 -28 2 -30 -2 -8 -12
41 -193 64 -237 30 -59 71 -89 146 -106 72 -17 118 -42 112 -60 -4 -12 -28
-19 -121 -34 -56 -9 -68 -24 -32 -41 91 -41 152 -149 165 -290 7 -77 13 -98
43 -148 50 -82 92 -170 112 -231 9 -28 23 -56 30 -62 7 -6 37 -13 67 -17 69
-8 106 7 177 70 58 54 60 59 37 167 -9 40 -13 75 -9 78 11 12 51 -51 110 -174
40 -84 64 -124 76 -124 20 -1 139 60 182 93 20 15 35 39 43 67 7 24 21 59 33
77 18 29 23 32 57 26 24 -3 55 0 83 10 82 29 109 17 75 -31 -12 -17 -13 -27
-4 -47 10 -20 9 -30 -5 -51 -10 -15 -14 -34 -11 -46 10 -30 -8 -45 -88 -75
-135 -50 -287 -117 -287 -125 0 -5 48 -9 108 -10 729 -6 1060 -15 1077 -29 23
-19 197 -279 343 -513 l112 -178 0 -65 0 -64 -412 1 c-227 1 -541 5 -698 8
l-285 6 -6 44 c-8 62 -69 115 -212 185 -229 111 -502 190 -779 224 -156 20
-280 -36 -331 -148 -24 -53 -35 -202 -19 -249 6 -17 9 -31 6 -31 -2 0 -20 18
-40 40 -28 31 -44 40 -69 40 -52 0 -64 -25 -40 -82 7 -17 -3 -18 -114 -18
-139 0 -146 5 -81 64 43 39 64 45 74 21 7 -20 32 -19 40 1 20 53 -5 121 -58
153 -29 19 -35 28 -38 69 -6 61 -2 69 36 82 34 11 89 62 100 94 4 13 -2 33
-19 58 -31 47 -27 56 50 93 29 13 65 39 79 56 22 26 25 37 20 70 -7 43 3 50
31 19 24 -26 65 -25 101 2 64 50 70 80 22 120 l-33 27 46 1 c51 0 145 -26 234
-65 32 -14 59 -24 62 -21 2 2 -13 27 -34 54 -21 28 -84 127 -140 220 -57 93
-112 177 -123 187 -20 18 -20 18 -13 -107 5 -103 3 -133 -11 -176 -20 -58 -38
-73 -79 -65 -34 7 -40 18 -62 118 -10 44 -24 95 -31 113 -13 31 -16 33 -56 30
l-43 -3 -18 -75 c-37 -160 -42 -175 -58 -178 -21 -4 -29 88 -29 343 l0 191
-36 17 -36 17 4 115 3 115 -57 0 -58 0 0 -112 0 -113 -48 -25 -47 -25 -5 -260
-5 -260 -127 -3 -128 -3 0 26 c0 24 -2 25 -72 25 -40 0 -127 -5 -193 -11 -120
-12 -215 -6 -215 12 0 5 34 46 77 91 93 100 166 211 238 360 49 103 105 271
94 283 -3 2 -566 8 -1252 11 l-1248 7 7 -44 c24 -164 141 -398 286 -572 27
-33 46 -63 41 -68 -10 -9 -134 -26 -265 -35 -88 -6 -98 -8 -98 -26 0 -10 22
-121 49 -246 65 -300 68 -320 46 -336 -13 -10 -19 -32 -23 -90 -4 -69 -3 -79
17 -100 18 -19 21 -31 16 -59 -13 -70 22 -438 71 -744 35 -219 43 -376 24
-458 -5 -22 -5 -44 0 -49 4 -4 29 -11 55 -14 26 -2 49 -11 52 -18 2 -7 -3 -47
-12 -88 -16 -73 -16 -147 0 -224 l7 -32 -398 2 -399 3 0 170 c0 143 2 170 15
172 8 1 36 5 63 8 l47 6 0 117 c0 64 7 205 15 312 8 107 24 338 35 514 10 175
22 339 26 365 3 25 30 96 59 156 49 100 59 134 111 372 63 287 64 298 3 273
-35 -15 -321 -21 -334 -8 -4 4 -11 137 -16 295 -9 330 -41 621 -87 796 l-28
108 -104 68 c-113 73 -133 89 -319 255 -121 109 -122 109 -103 129 20 19 20
19 54 -7 19 -14 38 -26 41 -26 4 0 27 15 52 34 44 34 140 64 170 53 7 -3 43
-49 80 -102 63 -89 66 -97 51 -114 -9 -10 -16 -27 -16 -40 0 -25 69 -161 82
-161 20 0 58 113 78 235 12 72 30 171 40 220 l19 90 -74 110 c-114 171 -303
393 -327 384 -2 -1 -29 -10 -60 -21z m3112 -1898 c0 -20 -33 -75 -81 -136 -70
-88 -256 -264 -279 -264 -11 0 -20 3 -20 6 0 3 53 61 119 128 65 67 135 149
157 181 21 33 45 68 53 78 15 19 51 23 51 7z m3380 -445 c0 -43 -1 -45 -30
-45 -16 0 -30 3 -30 6 0 15 46 84 57 84 1 0 3 -20 3 -45z m-3406 -191 c35
-109 67 -217 71 -239 3 -21 16 -57 28 -80 20 -36 22 -55 23 -215 0 -112 5
-192 13 -222 7 -27 14 -48 15 -49 0 -1 80 -6 176 -13 l175 -11 3 -39 3 -39
-53 6 c-29 4 -106 7 -170 7 l-116 0 -21 34 c-12 19 -87 119 -167 222 -186 242
-192 252 -204 353 -10 72 -8 99 15 229 14 81 29 157 33 169 6 19 101 97 109
89 2 -1 32 -92 67 -202z m-1505 81 c125 -70 99 -25 304 -548 100 -253 141
-370 133 -375 -6 -4 -80 -9 -163 -10 -84 -2 -153 -8 -153 -13 0 -16 44 -38
148 -72 57 -20 105 -37 107 -39 4 -4 -71 -280 -225 -832 -54 -195 -70 -266
-65 -290 13 -59 10 -117 -7 -130 -20 -14 -98 -8 -98 8 0 30 22 82 46 107 18
18 28 42 31 73 5 40 1 51 -36 107 -22 33 -41 65 -41 69 0 5 25 16 55 25 53 17
55 19 55 54 0 20 -16 95 -35 166 -58 214 -73 284 -90 415 -18 134 -34 491 -34
760 0 91 -4 178 -10 193 -11 29 -41 289 -41 357 0 23 3 39 8 37 4 -2 54 -30
111 -62z m6616 -82 c91 -39 120 -60 65 -48 -19 5 -50 8 -69 9 -30 1 -35 -3
-45 -31 -6 -17 -23 -42 -38 -56 -34 -31 -41 -85 -36 -275 3 -122 1 -142 -12
-141 -29 3 -30 -1 -9 -52 l20 -52 -31 -51 c-17 -28 -42 -64 -56 -81 l-24 -30
-164 -3 -164 -3 -8 58 c-4 32 -8 88 -8 126 -1 55 -4 68 -18 73 -22 7 -23 20
-3 28 20 7 19 45 -2 68 -23 25 -43 85 -43 128 0 19 16 105 35 190 19 85 35
156 35 158 0 6 99 1 103 -5 3 -5 8 -23 12 -41 7 -32 6 -33 -13 -23 -35 19 -55
14 -49 -11 4 -14 0 -29 -11 -41 -16 -18 -16 -20 3 -33 10 -8 34 -14 52 -14 41
0 42 -12 3 -40 -50 -36 -34 -67 25 -47 54 18 112 65 216 177 117 124 100 120
234 63z m-3955 26 c0 -6 -33 -46 -73 -88 -314 -330 -510 -531 -517 -531 -4 0
-10 34 -14 75 -7 76 -12 94 -105 353 -49 138 -59 181 -44 195 12 13 753 8 753
-4z m-2350 -69 c41 -10 117 -25 169 -32 l94 -12 -7 -220 c-9 -288 -23 -513
-34 -532 -6 -12 -17 3 -40 55 -34 76 -225 555 -273 684 l-28 77 22 0 c12 0 56
-9 97 -20z m650 -127 c-141 -379 -257 -665 -273 -675 -7 -4 -25 -8 -41 -8
l-29 0 7 238 c10 389 18 502 32 517 7 7 50 16 95 20 94 8 90 11 115 -87 9 -38
20 -71 25 -74 5 -3 30 40 56 95 25 56 49 101 54 101 4 0 -14 -57 -41 -127z
m-40 -427 c0 -100 11 -184 26 -190 7 -3 75 -8 151 -11 170 -7 203 -12 203 -29
0 -11 -52 -15 -249 -21 -137 -4 -254 -4 -259 -1 -7 4 0 36 17 89 44 127 92
238 102 231 5 -3 9 -34 9 -68z m190 -305 c0 -4 -41 -27 -91 -50 -77 -36 -90
-45 -87 -64 3 -21 7 -22 162 -25 133 -2 162 0 176 13 16 15 21 12 60 -32 56
-64 130 -163 130 -174 0 -5 -33 -44 -73 -87 -145 -154 -137 -139 -137 -250 0
-53 5 -143 12 -200 10 -87 10 -105 -2 -112 -20 -12 -30 -3 -30 26 0 45 -31
177 -51 216 -25 49 -44 58 -123 58 -59 0 -66 -2 -84 -27 -33 -46 -54 -122 -65
-235 -11 -107 -11 -108 -37 -108 -25 0 -27 3 -43 94 -22 124 -52 203 -94 245
-33 33 -35 34 -99 28 -80 -8 -113 -23 -136 -63 -39 -68 -47 -277 -14 -415 12
-54 12 -57 -11 -83 -13 -15 -23 -38 -23 -50 0 -26 -23 -50 -42 -44 -7 3 -13
21 -15 42 -3 49 -25 73 -85 91 -27 8 -71 27 -99 42 -49 26 -51 28 -45 63 7 42
264 972 271 979 3 2 7 2 10 -1 6 -5 97 -339 116 -422 12 -55 13 -56 47 -56 23
0 33 4 29 13 -2 6 -12 53 -22 102 l-18 90 57 140 c31 76 62 145 68 152 6 7 25
13 42 13 32 0 33 -1 70 -107 21 -60 61 -178 89 -263 28 -85 52 -157 53 -158 7
-9 75 21 71 32 -2 6 -32 99 -66 206 -34 107 -69 216 -77 243 -9 26 -14 52 -12
58 2 7 51 29 108 49 58 21 106 38 108 39 1 1 2 -3 2 -8z m2116 -14 c3 -3 -8
-25 -25 -49 -17 -24 -71 -134 -120 -245 -97 -218 -134 -289 -179 -342 -36 -44
-53 -38 -87 30 -29 57 -69 99 -94 99 -26 0 -74 -56 -126 -145 -26 -44 -70
-105 -99 -135 -28 -30 -62 -68 -74 -85 l-22 -30 -17 22 c-10 12 -98 124 -195
250 -210 271 -234 300 -242 292 -12 -11 -28 -326 -23 -441 5 -108 7 -120 31
-149 31 -37 33 -49 6 -49 -11 0 -20 -6 -20 -14 0 -16 -68 -76 -86 -76 -7 0
-16 33 -23 83 -18 121 -27 150 -61 182 -25 24 -40 30 -93 33 -77 5 -85 -3
-117 -116 -21 -75 -32 -94 -104 -185 -45 -56 -100 -115 -123 -132 -32 -23 -42
-37 -43 -60 0 -16 -5 -37 -10 -45 -20 -30 -10 68 11 117 17 38 22 68 21 143
l0 95 167 170 c196 198 189 185 198 408 l6 147 143 0 c137 0 144 -1 144 -20 0
-11 3 -20 8 -20 4 0 70 63 147 141 l140 141 478 -4 c262 -3 480 -7 483 -11z
m2239 -15 c38 -7 40 -9 62 -77 18 -59 22 -93 22 -215 1 -210 0 -215 -63 -239
-28 -10 -70 -22 -93 -26 -36 -6 -43 -10 -43 -30 0 -26 -29 -40 -103 -50 -26
-3 -67 -15 -90 -25 -23 -11 -52 -20 -64 -20 -21 0 -23 -5 -23 -49 0 -27 10
-74 21 -104 18 -48 20 -63 11 -112 -12 -72 -2 -117 48 -222 46 -93 47 -105 21
-141 l-19 -27 -1298 7 c-731 4 -1308 11 -1319 16 -12 5 -28 32 -39 61 -30 86
-9 178 68 290 25 36 57 99 71 140 33 98 49 121 83 121 33 0 95 -36 90 -53 -2
-7 -21 -20 -41 -30 -31 -16 -39 -27 -53 -73 -8 -30 -33 -98 -55 -151 -21 -53
-39 -98 -39 -100 0 -2 22 -1 50 3 47 6 51 5 77 -25 15 -17 31 -31 35 -31 4 0
16 20 27 45 28 62 48 87 148 177 46 43 98 94 114 115 16 20 100 88 187 151
200 145 410 315 533 429 52 49 121 108 151 131 31 23 71 60 90 82 l33 40 680
-1 c374 0 698 -3 720 -7z m806 -30 c-11 -16 -26 -33 -33 -39 -12 -9 -139 -36
-144 -30 0 1 -4 23 -7 50 l-7 47 106 0 105 0 -20 -28z m-5642 -48 c5 -4 -39
-115 -52 -132 -15 -19 -24 -4 -40 63 -19 81 -15 87 41 79 26 -4 49 -8 51 -10z
m1351 -74 c0 -13 -280 -13 -300 0 -10 6 37 10 143 10 98 0 157 -4 157 -10z
m-923 -552 c6 -7 22 -47 35 -88 43 -139 26 -392 -33 -489 -35 -58 -76 -30
-109 76 -50 161 -30 444 36 510 25 25 46 22 71 -9z m5103 -150 c193 -305 290
-472 282 -480 -5 -5 -96 -7 -203 -6 l-194 3 -12 75 c-6 41 -12 98 -12 125 -1
46 2 53 35 80 l36 31 -27 84 c-27 87 -47 270 -29 270 5 0 61 -82 124 -182z
m-723 96 c23 -38 63 -111 88 -161 44 -89 48 -93 88 -103 77 -20 81 -25 50 -52
-18 -15 -241 -118 -255 -118 -12 0 -9 99 3 123 7 12 29 43 50 68 56 67 52 81
-33 135 -40 26 -75 48 -77 50 -8 7 24 134 33 131 6 -2 30 -35 53 -73z m-4859
54 c16 -16 15 -29 -2 -22 -19 7 -44 -20 -56 -64 -24 -87 -1 -313 41 -413 28
-64 51 -84 78 -69 17 9 21 8 21 -5 0 -23 -49 -39 -78 -26 -94 43 -141 501 -62
596 15 18 42 19 58 3z m18 -75 c37 -55 59 -174 59 -320 0 -111 -3 -135 -17
-149 -21 -21 -38 -10 -62 40 -43 91 -65 348 -37 429 15 43 27 43 57 0z m4672
-181 c23 -73 28 -112 13 -112 -10 0 -91 98 -91 110 0 4 9 10 20 13 14 3 20 14
20 31 0 45 15 28 38 -42z m-3132 -180 c68 -86 124 -159 124 -164 0 -4 -66 -8
-146 -8 l-146 0 6 33 c4 17 9 94 13 169 3 85 9 135 15 132 6 -4 66 -76 134
-162z m-4102 122 c25 -10 0 -34 -35 -34 -33 0 -38 14 -11 29 20 12 25 13 46 5z
m7 -75 c-13 -11 -26 -17 -29 -14 -8 8 20 35 37 35 12 -1 11 -5 -8 -21z m9959
-16 c-1 -22 -83 -93 -106 -93 -8 0 -14 10 -14 24 0 14 -4 28 -10 31 -17 11
-11 23 18 33 32 12 112 15 112 5z m-6206 -64 c27 -32 33 -49 17 -49 -11 0 -81
80 -81 92 0 15 36 -10 64 -43z m-99 -29 c10 -11 15 -23 12 -27 -8 -7 -47 25
-47 39 0 14 16 9 35 -12z m-192 -17 c-13 -2 -35 -2 -50 0 -16 2 -5 4 22 4 28
0 40 -2 28 -4z"/>
<path d="M4606 1541 c-10 -15 34 -21 161 -21 127 0 171 13 80 24 -77 9 -235 7
-241 -3z"/>
<path d="M4646 953 c-25 -50 -39 -146 -39 -268 0 -132 18 -218 53 -250 19 -18
21 -18 40 0 37 33 53 117 52 263 -1 185 -26 282 -72 282 -11 0 -26 -12 -34
-27z m59 -35 c52 -131 37 -446 -23 -466 -36 -12 -70 208 -54 353 10 81 33 155
50 155 6 0 18 -19 27 -42z"/>
<path d="M9501 4867 c-25 -7 -47 -18 -49 -26 -4 -11 1 -12 19 -7 96 28 239 8
291 -42 25 -23 30 -24 53 -12 39 21 29 51 -25 78 -38 19 -59 22 -145 21 -55 0
-120 -6 -144 -12z"/>
<path d="M7969 4428 c-86 -130 -207 -275 -339 -403 -83 -81 -91 -92 -86 -119
5 -21 0 -37 -18 -61 -28 -36 -41 -93 -27 -114 12 -18 35 -4 151 94 160 136
324 318 459 509 98 139 100 151 32 186 -78 39 -89 34 -172 -92z"/>
<path d="M10958 4470 c5 -34 -3 -38 -29 -14 -42 38 -127 26 -172 -24 -18 -19
-17 -20 28 -15 30 4 45 2 45 -6 0 -6 -17 -37 -39 -69 -46 -69 -61 -110 -61
-171 0 -55 49 -255 80 -326 12 -27 22 -61 22 -75 0 -14 13 -42 29 -62 27 -35
28 -38 15 -70 -8 -18 -24 -46 -36 -61 -12 -15 -21 -29 -19 -31 2 -1 31 -19 65
-39 65 -39 132 -98 181 -162 17 -22 35 -37 39 -32 4 4 3 39 -3 77 -12 79 -3
134 25 148 10 6 41 4 77 -4 111 -24 132 -26 153 -15 29 16 54 70 47 103 -6 24
-3 27 29 33 28 6 41 16 60 49 13 22 33 50 45 60 26 24 26 30 -1 66 -21 29 -21
31 -5 90 25 89 22 178 -8 245 l-25 56 22 29 c16 23 19 36 13 66 -9 52 -39 108
-71 133 -36 28 -44 26 -44 -9 0 -35 -11 -37 -50 -10 -41 29 -118 60 -148 60
-24 0 -23 -2 13 -19 38 -17 77 -51 59 -51 -5 0 -33 9 -62 20 -57 22 -125 26
-167 10 -23 -9 -32 -6 -65 20 -21 16 -40 30 -42 30 -3 0 -3 -13 0 -30z"/>
<path d="M1210 4215 c-36 -7 -87 -13 -113 -14 -63 -1 -97 -20 -125 -69 -37
-67 -27 -109 37 -141 38 -20 38 -21 44 -93 4 -40 9 -85 12 -99 5 -19 0 -33
-19 -56 -26 -30 -26 -31 -7 -55 11 -13 21 -37 23 -53 2 -22 10 -31 36 -39 l33
-12 -20 -18 c-29 -26 -27 -36 17 -79 43 -42 47 -43 117 -21 50 16 54 16 78 -2
29 -21 43 -50 53 -106 8 -46 21 -48 60 -7 16 18 53 47 82 66 28 18 52 36 52
39 0 3 -8 19 -17 35 -16 27 -16 32 -3 56 21 37 40 41 40 9 0 -14 4 -26 8 -26
15 0 52 46 52 65 0 10 18 57 39 104 72 159 77 320 13 415 -63 93 -291 139
-492 101z"/>
<path d="M11950 3944 c0 -5 26 -21 58 -36 31 -15 86 -43 122 -62 36 -19 97
-42 135 -51 80 -19 104 -35 82 -54 -18 -15 -72 5 -242 89 -116 58 -205 84
-205 62 0 -6 15 -14 33 -17 37 -9 106 -42 173 -85 26 -16 75 -39 110 -50 35
-12 67 -26 71 -32 4 -8 0 -9 -13 -3 -10 4 -47 16 -81 26 -34 9 -90 36 -124 60
-64 43 -131 69 -181 69 -15 0 -28 -4 -28 -10 0 -5 6 -10 13 -10 41 0 121 -37
186 -85 49 -36 83 -55 102 -55 34 0 109 -28 109 -41 0 -29 -144 16 -231 72
-84 55 -180 93 -210 84 -28 -9 -23 -25 7 -25 36 0 114 -41 180 -95 30 -24 74
-49 97 -55 131 -33 246 -86 313 -144 l36 -31 -78 -78 -79 -77 -68 0 c-54 0
-95 -9 -201 -45 -155 -53 -426 -123 -508 -132 -52 -5 -58 -4 -58 13 0 13 -15
26 -45 41 l-45 22 -20 -29 c-33 -47 -82 -157 -87 -200 -6 -40 -5 -40 28 -41
19 0 72 -2 118 -5 101 -5 133 3 343 87 181 73 199 77 235 54 l27 -18 -77 -72
c-70 -66 -91 -95 -69 -95 4 0 48 36 97 80 83 73 93 79 125 74 51 -7 124 18
128 44 2 12 13 24 25 28 12 3 31 14 42 24 11 9 35 23 53 30 42 16 41 42 -3 66
-54 29 -76 0 211 264 89 82 180 160 203 174 44 28 54 59 24 74 -26 14 -41 5
-63 -38 -10 -21 -26 -40 -34 -43 -9 -4 -64 16 -123 44 -60 28 -164 71 -233 96
-69 25 -165 66 -213 90 -84 43 -167 66 -167 47z"/>
<path d="M1796 3923 c-2 -10 -7 -41 -11 -68 -5 -43 -3 -53 14 -69 28 -26 27
-40 -15 -126 -76 -156 -91 -241 -56 -310 18 -38 87 -80 130 -80 20 0 23 4 20
28 -3 25 1 28 50 44 29 9 77 31 107 49 59 36 74 64 28 53 -22 -6 -25 -4 -20
12 3 10 17 54 31 97 13 42 22 77 19 77 -3 0 -17 -9 -31 -21 l-27 -21 -5 84
c-7 102 -32 179 -71 218 -47 47 -153 68 -163 33z"/>
<path d="M11760 3751 c0 -5 30 -18 68 -30 71 -21 148 -65 197 -111 19 -19 56
-36 103 -49 93 -26 173 -62 220 -101 40 -32 62 -38 62 -16 0 37 -161 127 -261
147 -43 8 -70 22 -110 55 -77 63 -181 114 -235 114 -24 0 -44 -4 -44 -9z"/>
<path d="M11715 3699 c-17 -11 -12 -14 44 -25 71 -15 166 -64 231 -122 38 -33
54 -40 103 -45 61 -6 168 -50 224 -93 44 -34 54 -11 13 31 -41 42 -113 74
-199 88 -56 9 -76 18 -127 59 -109 85 -242 135 -289 107z"/>
<path d="M11665 3636 c-19 -15 -19 -15 11 -16 64 0 137 -34 283 -128 49 -32
74 -42 106 -42 65 0 142 -28 186 -67 23 -21 45 -33 54 -29 25 9 17 24 -27 56
-45 33 -111 55 -198 65 -43 6 -74 19 -145 65 -147 94 -233 124 -270 96z"/>
<path d="M10556 3488 c4 -24 7 -103 6 -175 -1 -110 2 -134 15 -141 12 -8 13
-13 3 -31 -14 -27 -19 -22 55 -59 33 -16 121 -68 195 -115 74 -46 151 -92 170
-102 34 -17 34 -17 50 5 8 13 20 36 27 52 15 34 21 27 -120 123 -93 62 -105
68 -215 92 -64 14 -118 26 -119 27 -1 1 10 26 24 56 30 61 42 190 26 265 l-9
40 -58 3 -58 3 8 -43z"/>
<path d="M10715 3403 c0 -100 -4 -125 -23 -167 -12 -27 -22 -52 -22 -57 0 -5
22 -9 50 -9 39 0 51 4 60 20 16 31 50 189 50 238 0 45 -25 82 -57 82 -10 0
-27 3 -38 6 -19 5 -20 0 -20 -113z"/>
<path d="M8615 3465 c-33 -32 -31 -58 6 -89 39 -33 104 -36 143 -5 31 25 33
48 5 78 -44 47 -116 55 -154 16z"/>
<path d="M5528 3408 c-29 -77 -40 -119 -34 -125 3 -3 40 -14 83 -24 101 -25
218 -35 227 -21 4 6 9 47 13 91 7 92 20 82 -127 101 -47 6 -99 13 -116 16 -29
5 -32 3 -46 -38z"/>
<path d="M6380 3430 c-63 -10 -131 -19 -150 -19 -56 -2 -67 -14 -42 -46 12
-15 25 -49 28 -76 8 -56 4 -55 131 -39 154 20 140 12 152 84 13 73 14 116 4
115 -5 -1 -60 -9 -123 -19z"/>
<path d="M10863 3363 c-9 -61 -22 -106 -43 -147 -16 -32 -30 -62 -30 -66 0 -4
16 -10 36 -13 20 -3 77 -32 127 -65 145 -92 156 -94 172 -30 4 15 13 32 20 38
8 7 21 35 31 63 16 50 43 95 31 52 -26 -92 -48 -191 -45 -208 4 -24 52 -41 67
-24 5 7 14 32 21 57 6 25 28 80 47 123 l36 78 -34 29 c-41 35 -55 37 -69 9
-16 -29 -20 -20 -10 24 7 34 5 39 -20 57 -42 30 -50 26 -50 -30 0 -27 -4 -50
-9 -50 -16 0 -191 121 -227 156 -18 19 -35 34 -36 34 -2 0 -9 -39 -15 -87z
m141 -151 c57 -43 108 -64 132 -55 12 4 15 0 12 -18 -7 -50 -81 -28 -170 51
-78 68 -58 85 26 22z"/>
<path d="M8157 3363 c-4 -3 -7 -16 -7 -28 0 -17 6 -21 40 -22 42 -2 47 5 30
38 -10 18 -50 26 -63 12z"/>
<path d="M8260 3348 c0 -8 6 -23 14 -34 14 -18 16 -18 32 -2 20 20 13 31 -23
43 -16 4 -23 2 -23 -7z"/>
<path d="M8084 3339 c-3 -6 0 -15 7 -20 22 -14 29 -11 29 11 0 21 -24 27 -36
9z"/>
<path d="M7930 3320 c0 -5 5 -10 11 -10 5 0 7 5 4 10 -3 6 -8 10 -11 10 -2 0
-4 -4 -4 -10z"/>
<path d="M1502 3303 c-43 -21 -92 -78 -92 -107 0 -12 7 -43 16 -68 l15 -46
-72 -147 c-51 -101 -80 -151 -96 -158 -40 -18 -37 1 12 80 27 43 58 94 69 114
l20 36 -33 46 c-40 54 -61 65 -79 40 -7 -10 -62 -94 -121 -188 -91 -145 -111
-170 -134 -173 -15 -2 -27 1 -27 6 0 4 48 85 106 178 59 93 115 183 125 199
11 17 19 37 19 45 0 19 -59 56 -70 44 -4 -5 -45 -70 -92 -144 -154 -247 -148
-240 -188 -237 -34 2 -35 1 -38 -35 -3 -36 -5 -38 -38 -38 -19 0 -34 3 -34 7
0 9 39 75 172 289 65 105 118 196 118 202 0 13 -55 25 -95 20 -26 -3 -52 -40
-278 -407 -234 -380 -248 -406 -236 -428 13 -24 67 -69 73 -62 2 2 29 47 61
99 31 52 64 101 73 108 9 6 36 12 61 12 l46 0 -38 -31 c-30 -24 -37 -37 -33
-54 4 -15 -9 -45 -44 -100 -28 -44 -50 -85 -50 -92 0 -16 39 -43 63 -43 12 0
38 32 78 94 44 69 68 97 90 105 16 5 29 8 29 5 0 -9 -41 -86 -81 -151 -22 -36
-38 -71 -35 -78 2 -7 24 -16 48 -20 71 -12 77 -20 35 -45 -20 -12 -37 -26 -37
-30 0 -5 18 -23 40 -42 l40 -33 -34 -112 c-19 -62 -47 -137 -64 -166 -16 -28
-33 -72 -36 -97 -4 -25 -28 -105 -54 -179 l-46 -134 25 -20 c26 -21 140 -80
177 -91 20 -7 25 -1 46 46 13 29 29 78 36 108 19 83 55 149 122 226 33 38 81
99 105 137 24 37 48 65 53 62 6 -3 27 -36 49 -73 21 -37 68 -101 103 -142 63
-73 154 -207 179 -262 15 -34 30 -35 134 -4 133 40 136 42 129 73 -11 47 -30
75 -106 159 -68 76 -76 89 -116 200 -23 65 -42 126 -42 135 0 9 11 24 25 33
25 17 34 59 15 71 -6 3 -7 17 -4 31 5 20 2 24 -15 24 -12 0 -21 1 -21 3 0 1 9
30 20 64 44 142 39 273 -15 353 -27 40 -32 56 -28 87 4 35 2 40 -31 58 l-34
20 45 70 c139 212 199 429 144 518 -32 51 -68 60 -129 30z m-736 -624 c8 -14
-14 -29 -43 -29 -25 0 -29 10 -11 28 15 15 45 16 54 1z m604 -137 c-17 -36
-49 -90 -71 -119 -38 -49 -86 -90 -95 -81 -6 7 135 240 164 271 40 42 41 11 2
-71z m-182 43 c4 -4 -87 -159 -165 -283 -41 -64 -103 -94 -103 -49 0 6 45 87
101 180 101 168 101 169 132 163 17 -3 33 -8 35 -11z"/>
<path d="M7850 3302 c-39 -19 -48 -54 -17 -60 21 -4 77 44 77 65 0 18 -18 16
-60 -5z"/>
<path d="M8030 3307 c0 -7 11 -30 23 -52 l23 -40 76 -6 c41 -4 81 -10 87 -13
16 -10 51 3 51 19 0 20 -22 65 -31 65 -5 0 -15 -13 -24 -30 -9 -16 -19 -30
-23 -30 -4 0 -25 15 -47 32 -44 37 -135 74 -135 55z"/>
<path d="M8352 3309 c2 -6 8 -10 13 -10 5 0 11 4 13 10 2 6 -4 11 -13 11 -9 0
-15 -5 -13 -11z"/>
<path d="M7982 3289 c1 -12 9 -24 16 -27 9 -3 13 3 10 19 -1 12 -9 24 -16 27
-9 3 -13 -3 -10 -19z"/>
<path d="M8167 3284 c-9 -10 12 -34 30 -34 19 0 12 34 -8 38 -8 1 -18 0 -22
-4z"/>
<path d="M817 3248 c-24 -32 -402 -640 -426 -685 -17 -32 4 -29 27 5 29 40
422 681 429 698 9 24 -5 15 -30 -18z"/>
<path d="M8320 3245 l0 -35 73 0 c84 0 113 12 70 28 -44 16 -126 42 -135 42
-4 0 -8 -16 -8 -35z"/>
<path d="M7879 3240 c-17 -16 -28 -34 -25 -39 6 -8 110 10 121 21 10 9 -28 48
-46 48 -11 0 -34 -13 -50 -30z"/>
<path d="M695 3238 c-44 -24 -81 -70 -177 -221 -55 -86 -104 -160 -109 -163
-15 -9 -10 32 10 78 10 24 35 67 54 96 49 72 50 86 9 90 -60 6 -103 -42 -69
-77 10 -10 6 -17 -17 -38 -20 -17 -32 -39 -36 -67 -4 -22 -11 -53 -15 -68 -6
-23 -3 -29 17 -39 24 -10 24 -13 16 -61 -10 -55 -4 -103 12 -93 6 4 27 32 47
63 80 124 282 451 297 481 16 29 15 31 -1 31 -10 0 -27 -6 -38 -12z"/>
<path d="M8000 3205 c0 -17 2 -18 24 -9 23 9 20 24 -4 24 -11 0 -20 -7 -20
-15z"/>
<path d="M6262 3154 c-35 -24 -29 -52 13 -60 34 -6 65 7 65 27 0 11 -37 49
-48 49 -4 0 -18 -7 -30 -16z"/>
<path d="M10489 3071 c-21 -18 -22 -21 -9 -35 25 -25 381 -256 441 -287 62
-31 68 -29 98 29 11 20 8 24 -35 50 -25 15 -106 64 -180 110 -134 81 -229 133
-270 146 -14 4 -29 0 -45 -13z"/>
<path d="M10411 2976 l-22 -23 61 -47 c141 -105 472 -289 489 -271 5 6 11 21
13 35 3 22 -8 30 -107 83 -60 32 -173 101 -250 153 -77 51 -145 94 -151 94 -6
0 -21 -11 -33 -24z"/>
<path d="M10301 2876 l-33 -34 131 -71 c192 -106 347 -178 424 -198 67 -18 69
-18 83 1 8 11 14 24 14 28 0 5 -28 21 -62 35 -101 43 -285 141 -394 210 -56
34 -108 63 -116 63 -8 0 -29 -15 -47 -34z"/>
<path d="M6707 2664 c-12 -12 -8 -21 19 -53 27 -32 60 -39 95 -21 27 15 24 37
-9 54 -35 18 -95 30 -105 20z"/>
<path d="M6598 2624 c-11 -24 -9 -29 20 -55 38 -34 43 -35 66 -10 22 24 9 54
-34 76 -38 20 -38 19 -52 -11z"/>
<path d="M6865 2580 c-29 -57 9 -98 60 -64 32 21 32 47 -1 73 -35 28 -41 27
-59 -9z"/>
<path d="M6445 2527 c-45 -25 -69 -72 -45 -87 31 -19 140 52 140 92 0 26 -45
23 -95 -5z"/>
<path d="M6707 2512 c-25 -28 -21 -67 9 -91 35 -27 69 -27 88 1 34 48 7 108
-48 108 -19 0 -40 -8 -49 -18z"/>
<path d="M6903 2470 c-36 -15 -65 -69 -58 -110 12 -68 47 -75 78 -17 18 34 47
113 47 128 0 11 -38 10 -67 -1z"/>
<path d="M6510 2411 c-12 -8 -12 -15 -4 -28 25 -41 150 -77 180 -53 22 19 13
53 -20 68 -36 18 -137 26 -156 13z"/>
<path d="M6355 2373 c-15 -16 -34 -43 -42 -62 -13 -30 -13 -36 1 -49 22 -22
84 -17 113 9 42 41 23 129 -29 129 -8 0 -28 -12 -43 -27z"/>
<path d="M6226 2211 c-9 -10 -19 -34 -22 -53 -5 -27 -1 -40 21 -66 57 -68 143
-16 121 73 -15 59 -84 86 -120 46z"/>
<path d="M1745 1365 c-22 -8 -75 -24 -117 -36 -72 -20 -102 -39 -60 -39 29 0
162 39 203 61 62 31 46 40 -26 14z"/>
<path d="M1755 1318 c-27 -11 -83 -30 -124 -42 -76 -22 -87 -31 -72 -54 6 -11
26 -9 102 9 153 35 188 54 173 94 -8 19 -17 18 -79 -7z"/>
<path d="M605 1310 c-7 -12 21 -30 126 -79 84 -40 135 -53 112 -30 -9 9 -220
119 -229 119 -1 0 -5 -4 -9 -10z"/>
<path d="M565 1260 c-9 -10 -15 -25 -12 -32 11 -30 206 -127 254 -128 24 0 51
37 36 49 -4 4 -37 20 -72 35 -35 14 -90 42 -123 61 -32 19 -60 35 -62 35 -2 0
-11 -9 -21 -20z"/>
<path d="M227 954 c-4 -4 -7 -16 -7 -26 0 -12 -7 -18 -23 -18 -31 0 -38 -9
-27 -30 15 -28 -16 -33 -71 -14 -40 15 -53 15 -75 6 -31 -15 -28 -40 13 -105
52 -85 95 -128 154 -157 32 -15 76 -42 98 -59 21 -17 46 -31 55 -31 25 0 116
70 121 93 16 68 14 70 -53 85 -49 11 -65 19 -71 36 -25 68 -44 127 -54 171 -9
38 -17 51 -33 53 -11 2 -23 0 -27 -4z m33 -34 c0 -5 -2 -10 -4 -10 -3 0 -8 5
-11 10 -3 6 -1 10 4 10 6 0 11 -4 11 -10z"/>
</g>
</svg>
